<svg width="678" height="776" viewBox="0 0 678 776" fill="none" xmlns="http://www.w3.org/2000/svg">
<g clip-path="url(#clip0)">
<path d="M252.991 416.155C258.431 431.036 262.212 459.398 264.705 486.42C270.749 487.413 276.614 488.877 282.248 490.812C280.917 467.81 278.531 449.938 277.253 441.446C310.166 476.942 337.001 510.326 337.001 510.326L344.819 502.509C317.203 454.944 272.86 406.323 254.979 387.519C362.664 416.262 452.371 447.756 452.371 447.756V432.12C247.045 326.519 71.0568 303.066 71.0568 303.066V348.031C114.469 354.234 161.563 364.137 207.37 375.336C221.551 385.958 237.382 400.511 252.991 416.155Z" fill="#645E5E"/>
<path d="M393.715 373.453C428.91 402.783 571.656 391.051 540.375 359.77C509.085 328.481 411.312 349.992 393.715 373.453Z" fill="#645E5E"/>
<path d="M403.591 247.576C359.967 240.22 292.765 314.433 292.037 343.752C337.72 347.241 447.224 254.925 403.591 247.576Z" fill="#645E5E"/>
<path d="M182.274 475.78C190.376 443.328 138.384 388.336 116.322 386.064C111.025 420.291 174.173 508.223 182.274 475.78Z" fill="#645E5E"/>
<path d="M605.661 495.037C589.865 453.702 491.825 433.443 466.179 447.686C486.35 488.825 621.464 536.353 605.661 495.037Z" fill="#645E5E"/>
<path d="M246.07 504.461C189.374 504.461 143.406 557.075 143.406 636.461C143.406 715.839 189.373 768.453 246.07 768.453C302.765 768.453 348.732 715.839 348.732 636.461C348.732 557.075 302.765 504.461 246.07 504.461ZM192.302 604.195C175.681 592.33 194.254 547.491 211.852 549.443C229.449 551.403 205.994 613.974 192.302 604.195Z" fill="#645E5E"/>
<path d="M370.713 506.076C357.81 513.051 347.365 522.971 339.795 535.111C358.271 561.334 369.01 596.412 369.01 636.477C369.01 654.253 366.897 671.095 362.851 686.58C398.461 730.462 448.147 743.489 487.396 722.308C533.851 697.256 548.227 633.843 513.148 568.779C478.07 503.777 417.178 481.024 370.713 506.076ZM399.731 579.783C389.145 587.85 369.463 541.643 381.974 539.859C397.175 537.693 410.318 571.725 399.731 579.783Z" fill="#645E5E"/>
</g>
<path d="M109.238 96C117.372 96 124.372 97.4 130.238 100.2C136.105 102.867 140.905 106.533 144.638 111.2C148.505 115.733 151.305 121 153.038 127C154.905 132.867 155.838 139.067 155.838 145.6C155.838 152.133 154.905 158.333 153.038 164.2C151.305 169.933 148.572 175 144.838 179.4C141.105 183.667 136.305 187.067 130.438 189.6C124.705 192.133 117.905 193.4 110.038 193.4C101.905 193.4 94.8383 192.067 88.8383 189.4C82.9716 186.733 78.1049 183.2 74.2383 178.8C70.3716 174.267 67.5049 169.067 65.6383 163.2C63.7716 157.333 62.8383 151.133 62.8383 144.6C62.8383 138.067 63.7716 131.867 65.6383 126C67.5049 120.133 70.3049 115 74.0383 110.6C77.9049 106.067 82.7716 102.533 88.6383 100C94.505 97.3333 101.372 96 109.238 96ZM109.838 182.8C115.172 182.8 119.772 181.8 123.638 179.8C127.638 177.8 130.905 175.133 133.438 171.8C136.105 168.333 138.038 164.4 139.238 160C140.438 155.467 141.038 150.733 141.038 145.8C141.038 140.733 140.372 135.867 139.038 131.2C137.838 126.533 135.905 122.467 133.238 119C130.572 115.4 127.172 112.533 123.038 110.4C119.038 108.267 114.238 107.2 108.638 107.2C103.172 107.2 98.505 108.2 94.6383 110.2C90.7716 112.2 87.5716 114.867 85.0383 118.2C82.5049 121.533 80.6383 125.467 79.4383 130C78.2383 134.4 77.6383 139.067 77.6383 144C77.6383 149.067 78.2383 153.933 79.4383 158.6C80.7716 163.267 82.7049 167.4 85.2383 171C87.9049 174.6 91.2383 177.467 95.2383 179.6C99.3716 181.733 104.238 182.8 109.838 182.8ZM236.148 191H222.148V43H236.148V191ZM322.604 191H308.604V99H322.604V191ZM305.604 65.4C305.604 62.7333 306.537 60.3333 308.404 58.2C310.404 56.0667 312.804 55 315.604 55C318.271 55 320.671 56.0667 322.804 58.2C324.937 60.3333 326.004 62.7333 326.004 65.4C326.004 68.2 324.937 70.6 322.804 72.6C320.671 74.4667 318.271 75.4 315.604 75.4C312.804 75.4 310.404 74.4667 308.404 72.6C306.537 70.6 305.604 68.2 305.604 65.4ZM439.121 191H421.321L379.521 99H394.721L430.521 177.8L466.321 99H480.921L439.121 191ZM578.241 96C589.975 96 599.041 99 605.441 105C611.841 110.867 615.041 119.2 615.041 130C615.041 132.267 614.908 134.6 614.641 137C614.375 139.267 613.908 140.933 613.241 142H545.841V144C545.841 149.067 546.508 153.933 547.841 158.6C549.175 163.267 551.175 167.4 553.841 171C556.508 174.6 559.841 177.467 563.841 179.6C567.975 181.733 572.841 182.8 578.441 182.8C581.641 182.8 584.775 182.467 587.841 181.8C590.908 181 593.841 180.067 596.641 179C599.441 177.8 602.041 176.533 604.441 175.2C606.841 173.867 608.975 172.533 610.841 171.2L613.241 182.6C611.508 183.667 609.375 184.867 606.841 186.2C604.308 187.4 601.508 188.533 598.441 189.6C595.375 190.667 591.975 191.533 588.241 192.2C584.641 193 580.841 193.4 576.841 193.4C569.375 193.4 562.775 192.133 557.041 189.6C551.308 186.933 546.508 183.4 542.641 179C538.775 174.467 535.841 169.267 533.841 163.4C531.841 157.533 530.841 151.4 530.841 145C530.841 138.467 531.841 132.267 533.841 126.4C535.975 120.4 539.041 115.133 543.041 110.6C547.041 106.067 551.975 102.533 557.841 100C563.841 97.3333 570.641 96 578.241 96ZM577.641 107.2C568.841 107.2 561.975 109.533 557.041 114.2C552.241 118.733 548.975 124.467 547.241 131.4H601.841C601.975 130.733 602.041 130.133 602.041 129.6C602.041 129.067 602.041 128.467 602.041 127.8C602.041 124.467 601.375 121.533 600.041 119C598.708 116.333 596.908 114.133 594.641 112.4C592.375 110.667 589.775 109.4 586.841 108.6C583.908 107.667 580.841 107.2 577.641 107.2Z" fill="#645E5E"/>
<defs>
<clipPath id="clip0">
<rect width="535.886" height="535.886" fill="white" transform="translate(71.0568 239.817)"/>
</clipPath>
</defs>
</svg>
